<svg width="18" height="16" viewBox="0 0 18 16" version="1.1" xmlns="http://www.w3.org/2000/svg" xmlns:xlink="http://www.w3.org/1999/xlink">
<g id="Canvas" fill="none">
<g id="Rectangle">
<path fill-rule="evenodd" clip-rule="evenodd" d="M 11.6345 10.4433C 11.6337 10.4441 11.6329 10.4449 11.6322 10.4456C 11.5881 10.4885 11.5485 10.5406 11.5251 10.572C 11.4683 10.6481 11.3914 10.7607 11.3035 10.8917C 11.2336 10.9959 11.1555 11.1137 11.0694 11.2436C 10.9291 11.4552 10.7676 11.6988 10.5857 11.9679C 10.1187 12.659 9.5579 13.4574 9.02626 14.0986C 8.99194 14.0523 8.95567 14.0033 8.91768 13.9518C 8.6356 13.5699 8.26248 13.0599 7.88995 12.5491C 7.51755 12.0386 7.14626 11.5279 6.86804 11.1448L 6.53209 10.682L 6.43807 10.5524L 6.4135 10.5185L 6.27403 10.3L 6 10.3L 0.5 10.3L 0.5 0.5L 17.5 0.5L 17.5 10.3L 12.0773 10.3C 12.0144 10.2898 11.9588 10.293 11.9154 10.3L 11.726 10.3L 11.6345 10.4433Z" stroke-miterlimit="8" stroke="black"/>
</g>
</g>
</svg>

