<svg width="18" height="10" viewBox="0 0 18 10" version="1.1" xmlns="http://www.w3.org/2000/svg" xmlns:xlink="http://www.w3.org/1999/xlink">
<g id="Canvas" fill="none">
<g id="Group 2">
<g id="Ellipse">
<path fill-rule="evenodd" clip-rule="evenodd" d="M 0.831412 4.86957C 0.970446 4.76667 1.13387 4.64686 1.31778 4.514C 1.94452 4.06123 2.80699 3.45843 3.75193 2.85649C 4.69858 2.25346 5.71889 1.65717 6.66272 1.21334C 7.6249 0.760894 8.44038 0.5 9 0.5C 9.55962 0.5 10.3751 0.760894 11.3373 1.21334C 12.2811 1.65717 13.3014 2.25346 14.2481 2.85649C 15.193 3.45843 16.0555 4.06123 16.6822 4.514C 16.8661 4.64686 17.0296 4.76667 17.1686 4.86957C 17.0296 4.97247 16.8661 5.09227 16.6822 5.22513C 16.0555 5.6779 15.193 6.2807 14.2481 6.88264C 13.3014 7.48567 12.2811 8.08197 11.3373 8.52579C 10.3751 8.97824 9.55962 9.23913 9 9.23913C 8.44038 9.23913 7.6249 8.97824 6.66272 8.52579C 5.71889 8.08197 4.69858 7.48567 3.75193 6.88264C 2.80699 6.2807 1.94452 5.6779 1.31778 5.22513C 1.13387 5.09227 0.970446 4.97247 0.831412 4.86957Z" stroke-miterlimit="8" stroke="black"/>
</g>
<g id="Ellipse 2">
<ellipse cx="2.04545" cy="2.02899" rx="2.04545" ry="2.02899" transform="translate(6.95453 2.84058)" fill="black"/>
</g>
</g>
</g>
</svg>

