<?xml version="1.0" encoding="UTF-8" standalone="no"?>
<svg width="11px" height="19px" viewBox="0 0 11 19" version="1.1" xmlns="http://www.w3.org/2000/svg" xmlns:xlink="http://www.w3.org/1999/xlink">
    <!-- Generator: Sketch 3.7.2 (28276) - http://www.bohemiancoding.com/sketch -->
    <title>Slice 1 Copy</title>
    <desc>Created with Sketch.</desc>
    <defs></defs>
    <g id="Page-1" stroke="none" stroke-width="1" fill="none" fill-rule="evenodd">
        <path d="M-4,5.99201702 C-4,4.8918564 -3.10907461,4 -2.00257809,4 L13.0025781,4 C14.1057238,4 15,4.90017617 15,5.99201702 L15,13.007983 C15,14.1081436 14.1090746,15 13.0025781,15 L-2.00257809,15 C-3.10572375,15 -4,14.0998238 -4,13.007983 L-4,5.99201702 Z M0,6 L12.1851852,6 L12.1851852,13 L0,13 L0,6 Z M-2,10.5 C-1.44771525,10.5 -1,10.0522847 -1,9.5 C-1,8.94771525 -1.44771525,8.5 -2,8.5 C-2.55228475,8.5 -3,8.94771525 -3,9.5 C-3,10.0522847 -2.55228475,10.5 -2,10.5 Z" id="Combined-Shape-Copy-23" fill="#000000" transform="translate(5.500000, 9.500000) rotate(-90.000000) translate(-5.500000, -9.500000) "></path>
    </g>
</svg>