<?xml version="1.0" encoding="UTF-8" standalone="no"?>
<svg width="30px" height="21px" viewBox="0 0 30 21" version="1.1" xmlns="http://www.w3.org/2000/svg" xmlns:xlink="http://www.w3.org/1999/xlink">
    <!-- Generator: Sketch 3.7.2 (28276) - http://www.bohemiancoding.com/sketch -->
    <title>Slice 1 Copy</title>
    <desc>Created with Sketch.</desc>
    <defs></defs>
    <g id="Page-1" stroke="none" stroke-width="1" fill="none" fill-rule="evenodd">
        <path d="M0,1.99456145 C0,0.892995579 0.89784041,0 1.99161703,0 L28.008383,0 C29.1083227,0 30,0.90234375 30,1.99456145 L30,19.0054385 C30,20.1070044 29.1021596,21 28.008383,21 L1.99161703,21 C0.891677316,21 0,20.0976562 0,19.0054385 L0,1.99456145 Z M5,2 L28,2 L28,19 L5,19 L5,2 Z M2.5,12 C3.32842712,12 4,11.3284271 4,10.5 C4,9.67157288 3.32842712,9 2.5,9 C1.67157288,9 1,9.67157288 1,10.5 C1,11.3284271 1.67157288,12 2.5,12 Z" id="Combined-Shape-Copy-21" fill="#000000"></path>
    </g>
</svg>