<?xml version="1.0" encoding="UTF-8" standalone="no"?>
<svg width="17px" height="25px" viewBox="0 0 17 25" version="1.1" xmlns="http://www.w3.org/2000/svg" xmlns:xlink="http://www.w3.org/1999/xlink">
    <!-- Generator: Sketch 3.7.2 (28276) - http://www.bohemiancoding.com/sketch -->
    <title>Slice 1 Copy</title>
    <desc>Created with Sketch.</desc>
    <defs></defs>
    <g id="Page-1" stroke="none" stroke-width="1" fill="none" fill-rule="evenodd">
        <path d="M-4,6.00010618 C-4,4.89547804 -3.11023676,4 -1.99640514,4 L18.9964051,4 C20.10296,4 21,4.89005841 21,6.00010618 L21,18.9998938 C21,20.104522 20.1102368,21 18.9964051,21 L-1.99640514,21 C-3.10296003,21 -4,20.1099416 -4,18.9998938 L-4,6.00010618 Z M1,6 L19,6 L19,19 L1,19 L1,6 Z M-1.5,14 C-0.671572875,14 8.8817842e-16,13.3284271 8.8817842e-16,12.5 C8.8817842e-16,11.6715729 -0.671572875,11 -1.5,11 C-2.32842712,11 -3,11.6715729 -3,12.5 C-3,13.3284271 -2.32842712,14 -1.5,14 Z" id="Combined-Shape-Copy-22" fill="#000000" transform="translate(8.500000, 12.500000) rotate(-90.000000) translate(-8.500000, -12.500000) "></path>
    </g>
</svg>