<?xml version="1.0" encoding="UTF-8" standalone="no"?>
<svg width="19px" height="11px" viewBox="0 0 19 11" version="1.1" xmlns="http://www.w3.org/2000/svg" xmlns:xlink="http://www.w3.org/1999/xlink">
    <!-- Generator: Sketch 3.7.2 (28276) - http://www.bohemiancoding.com/sketch -->
    <title>Slice 1 Copy</title>
    <desc>Created with Sketch.</desc>
    <defs></defs>
    <g id="Page-1" stroke="none" stroke-width="1" fill="none" fill-rule="evenodd">
        <path d="M0,1.99201702 C0,0.891856397 0.890925393,0 1.99742191,0 L17.0025781,0 C18.1057238,0 19,0.900176167 19,1.99201702 L19,9.00798298 C19,10.1081436 18.1090746,11 17.0025781,11 L1.99742191,11 C0.894276248,11 0,10.0998238 0,9.00798298 L0,1.99201702 Z M4,2 L16.1851852,2 L16.1851852,9 L4,9 L4,2 Z M2,6.5 C2.55228475,6.5 3,6.05228475 3,5.5 C3,4.94771525 2.55228475,4.5 2,4.5 C1.44771525,4.5 1,4.94771525 1,5.5 C1,6.05228475 1.44771525,6.5 2,6.5 Z" id="Combined-Shape-Copy-27" fill="#000000"></path>
    </g>
</svg>