<?xml version="1.0" encoding="UTF-8" standalone="no"?>
<svg width="16px" height="16px" viewBox="0 0 16 16" version="1.1" xmlns="http://www.w3.org/2000/svg" xmlns:xlink="http://www.w3.org/1999/xlink">
    <!-- Generator: Sketch 3.7.2 (28276) - http://www.bohemiancoding.com/sketch -->
    <title>Slice 29</title>
    <desc>Created with Sketch.</desc>
    <defs></defs>
    <g id="Page-1" stroke="none" stroke-width="1" fill="none" fill-rule="evenodd">
        <g id="Group-42-Copy" transform="translate(1.000000, 1.000000)">
            <g id="Group-40">
                <path d="M6.22345865,8.99425562 C6.21624057,8.95831795 6.21263158,8.9187871 6.21263158,8.8756619 L6.21263158,8.75706817 C6.21263158,8.45519174 6.25774391,8.18925696 6.34796992,7.95925587 C6.43819594,7.72925478 6.55007452,7.51902255 6.68360902,7.3285529 C6.81714352,7.13808324 6.96150298,6.96019444 7.11669173,6.79488115 C7.27188048,6.62956787 7.41623993,6.4624602 7.54977444,6.29355315 C7.68330894,6.1246461 7.79518752,5.94496044 7.88541353,5.75449078 C7.97563955,5.56402113 8.02075188,5.34660148 8.02075188,5.10222532 C8.02075188,4.77159874 7.92511374,4.50207026 7.73383459,4.29363176 C7.54255543,4.08519327 7.22316013,3.98097559 6.7756391,3.98097559 C6.51578817,3.98097559 6.25233216,4.02589701 5.98526316,4.11574118 C5.71819415,4.20558536 5.48721902,4.3115999 5.29233083,4.43378798 L5,3.76535064 C5.27428709,3.60003736 5.563006,3.46886683 5.86616541,3.37183511 C6.16932482,3.2748034 6.54465942,3.22628827 6.99218045,3.22628827 C7.30977602,3.22628827 7.58947248,3.27120969 7.8312782,3.36105387 C8.07308392,3.45089804 8.27518716,3.57488115 8.43759398,3.7330069 C8.60000081,3.89113265 8.72090186,4.07800574 8.80030075,4.29363176 C8.87969965,4.50925779 8.9193985,4.73925543 8.9193985,4.9836316 C8.9193985,5.30707063 8.87067718,5.58917712 8.77323308,5.82995951 C8.67578899,6.07074191 8.55308345,6.28995841 8.40511278,6.4876156 C8.25714212,6.68527279 8.09834671,6.87034902 7.9287218,7.04284984 C7.7590969,7.21535066 7.60030149,7.39683318 7.45233083,7.58730284 C7.30436016,7.77777249 7.18165462,7.984411 7.08421053,8.20722456 C6.98676643,8.43003812 6.93804511,8.69237918 6.93804511,8.99425562 L6.22345865,8.99425562 Z M6.00691729,10.406599 C6.00691729,10.2125356 6.06285658,10.0598028 6.17473684,9.94839601 C6.2866171,9.83698923 6.43639004,9.78128667 6.62406015,9.78128667 C6.81894834,9.78128667 6.97413476,9.83698923 7.08962406,9.94839601 C7.20511336,10.0598028 7.26285714,10.2125356 7.26285714,10.406599 C7.26285714,10.5934749 7.20511336,10.7444109 7.08962406,10.8594114 C6.97413476,10.974412 6.81894834,11.0319114 6.62406015,11.0319114 C6.43639004,11.0319114 6.2866171,10.974412 6.17473684,10.8594114 C6.06285658,10.7444109 6.00691729,10.5934749 6.00691729,10.406599 L6.00691729,10.406599 Z" id="?-copy-3" fill="#000000"></path>
                <ellipse id="Oval-142" stroke="#000000" cx="7.02" cy="6.99029126" rx="7.02" ry="6.99029126"></ellipse>
            </g>
        </g>
    </g>
</svg>